<?xml version="1.0" encoding="iso-8859-1"?>
<!-- Generator: Adobe Illustrator 19.0.0, SVG Export Plug-In . SVG Version: 6.00 Build 0)  -->
<svg version="1.1" id="Layer_1" xmlns="http://www.w3.org/2000/svg" xmlns:xlink="http://www.w3.org/1999/xlink" x="0px" y="0px"
	 viewBox="0 0 501.333 501.333" style="enable-background:new 0 0 501.333 501.333;" xml:space="preserve">
<path style="fill:#3A5569;" d="M250.667,0C230.4,0,214.4,16,214.4,36.267s16,36.267,36.267,36.267s36.267-16,36.267-36.267
	S270.933,0,250.667,0z M250.667,57.6c-11.733,0-21.333-9.6-21.333-21.333s9.6-21.333,21.333-21.333S272,24.533,272,36.267
	S262.4,57.6,250.667,57.6z"/>
<circle style="fill:#F16D6E;" cx="250.667" cy="444.8" r="56.533"/>
<path style="fill:#FEC656;" d="M393.6,225.067c0-72.533-37.333-174.933-142.933-174.933s-142.933,102.4-142.933,174.933
	S12.8,368,12.8,368v55.467h237.867h237.867V368C488.533,369.067,393.6,297.6,393.6,225.067z"/>
<g>
</g>
<g>
</g>
<g>
</g>
<g>
</g>
<g>
</g>
<g>
</g>
<g>
</g>
<g>
</g>
<g>
</g>
<g>
</g>
<g>
</g>
<g>
</g>
<g>
</g>
<g>
</g>
<g>
</g>
</svg>
