<svg width="33" height="34" viewBox="0 0 33 34" fill="none" xmlns="http://www.w3.org/2000/svg">
<path d="M20.625 21.25C19.8656 21.25 19.25 21.8842 19.25 22.6666V31.1666H2.75002V2.83336H19.25V11.3334C19.25 12.1158 19.8656 12.75 20.625 12.75C21.3844 12.75 22 12.1158 22 11.3334V1.41664C22 0.634246 21.3844 0 20.625 0H1.37498C0.615592 0 0 0.634246 0 1.41664V32.5833C0 33.3658 0.615592 34 1.37498 34H20.625C21.3844 34 22 33.3658 22 32.5834V22.6666C22 21.8842 21.3844 21.25 20.625 21.25Z" fill="#E2E0E0"/>
<path d="M32.6883 17.8978C32.7014 17.8813 32.7128 17.864 32.7251 17.8471C32.7397 17.827 32.7548 17.8074 32.7683 17.7864C32.7815 17.7662 32.7928 17.7453 32.8048 17.7245C32.8158 17.7056 32.8273 17.6871 32.8374 17.6676C32.8484 17.6465 32.8577 17.6247 32.8676 17.6032C32.8769 17.5828 32.8867 17.5628 32.8952 17.542C32.9036 17.5211 32.9104 17.4997 32.9177 17.4784C32.9255 17.4561 32.9339 17.434 32.9406 17.4112C32.9468 17.3899 32.9514 17.3683 32.9566 17.3468C32.9623 17.3235 32.9687 17.3005 32.9732 17.2768C32.978 17.2519 32.9808 17.2268 32.9844 17.2017C32.9872 17.1811 32.9911 17.1608 32.9931 17.1398C33.002 17.0468 33.002 16.9531 32.9931 16.8601C32.9911 16.8392 32.9873 16.8189 32.9844 16.7982C32.9809 16.7731 32.9781 16.748 32.9732 16.7231C32.9687 16.6994 32.9623 16.6764 32.9566 16.6531C32.9514 16.6316 32.9468 16.61 32.9406 16.5887C32.9339 16.5659 32.9255 16.5438 32.9177 16.5215C32.9103 16.5002 32.9036 16.4788 32.8952 16.4579C32.8868 16.4371 32.8769 16.4171 32.8676 16.3968C32.8577 16.3752 32.8484 16.3534 32.8374 16.3323C32.8273 16.3128 32.8158 16.2943 32.8048 16.2754C32.7928 16.2546 32.7814 16.2337 32.7683 16.2135C32.7547 16.1926 32.7397 16.1729 32.7251 16.1528C32.7128 16.1359 32.7014 16.1186 32.6883 16.1021C32.66 16.0666 32.6301 16.0324 32.5986 15.9998C32.5981 15.9993 32.5977 15.9988 32.5972 15.9983L27.0972 10.3317C26.5603 9.77844 25.6896 9.77844 25.1527 10.3317C24.6157 10.8849 24.6157 11.7819 25.1527 12.3351L28.3054 15.5834H16.5C15.7406 15.5834 15.125 16.2177 15.125 17.0001C15.125 17.7825 15.7406 18.4167 16.5 18.4167H28.3054L25.1527 21.665C24.6157 22.2182 24.6157 23.1152 25.1527 23.6684C25.6896 24.2217 26.5603 24.2217 27.0972 23.6684L32.5972 18.0018C32.5977 18.0013 32.5981 18.0007 32.5986 18.0003C32.6301 17.9675 32.66 17.9333 32.6883 17.8978Z" fill="#E2E0E0"/>
</svg>
