<svg width="122" height="151" viewBox="0 0 122 151" fill="none" xmlns="http://www.w3.org/2000/svg">
<path d="M88.4686 24.9071C85.7525 11.9305 77.9922 3.08289 74.4998 1.31345C66.6423 -2.66789 64.0234 3.6727 60.5311 3.6727C57.0387 3.6727 54.4199 -2.66825 46.5623 1.31345C43.0703 3.08289 35.3097 11.9305 32.5936 24.9071C29.8774 37.8837 60.5311 27.2663 60.5311 27.2663C60.5311 27.2663 91.1847 37.8837 88.4686 24.9071Z" fill="#7C828D"/>
<path d="M60.5311 63.7033C90.1041 63.7033 114.078 54.7245 114.078 43.6485C114.078 32.5726 90.1041 23.5938 60.5311 23.5938C30.958 23.5938 6.98438 32.5726 6.98438 43.6485C6.98438 54.7245 30.958 63.7033 60.5311 63.7033Z" fill="#6E6E79"/>
<path d="M34.9537 101.071C40.1603 97.6733 39.5779 87.5622 39.5779 85.2029H81.4842C81.4842 87.5622 80.8385 97.6733 86.0447 101.071L60.5311 130.031L34.9537 101.071Z" fill="#FFD7A3"/>
<path d="M76.8278 111.156L86.0447 101.071C80.8382 97.6737 81.4842 87.5622 81.4842 85.2029H39.5779C42.5845 93.9634 62.4713 108.993 76.8278 111.156Z" fill="#FDC88E"/>
<path d="M114.078 151C117.936 151 121.062 147.831 121.062 143.922V128.511C121.062 118.129 113.08 107.047 103.324 103.883L88.7583 99.1599C80.922 105.232 69.7232 113.516 60.5314 113.516C51.3397 113.516 40.1408 105.232 32.3045 99.1599L17.7389 103.883C7.98245 107.047 0 118.129 0 128.511V143.922C0 147.831 3.12689 151 6.98438 151H114.078Z" fill="#7C828D"/>
<path d="M60.5311 113.516C53.9171 113.516 46.2697 109.225 39.5779 104.557V127.406L55.8736 151H65.1875L81.4839 127.406V104.557C74.7924 109.225 67.145 113.516 60.5311 113.516Z" fill="#29394A"/>
<path d="M41.965 101.027L58.203 151H48.8906L27.0371 124.134C26.2177 123.304 26.1257 121.99 26.8209 121.05L32.5939 113.25L20.5823 109.192C19.4325 108.804 18.7649 107.599 19.0518 106.406C20.3456 101.027 25.0696 87.2966 39.5779 87.2966C39.5779 91.9796 40.386 96.626 41.965 101.027Z" fill="#6E6E79"/>
<path d="M79.0975 101.027L62.8594 151H72.1718L94.0254 124.134C94.8448 123.304 94.9368 121.99 94.2416 121.05L88.4686 113.25L100.48 109.192C101.63 108.804 102.298 107.599 102.011 106.406C100.717 101.027 95.9929 87.2966 81.4846 87.2966C81.4842 91.9796 80.6765 96.626 79.0975 101.027Z" fill="#6E6E79"/>
<path d="M28.5276 42.4111C27.9679 45.7489 27.9375 49.7621 27.9375 54.5312C27.9375 73.4253 38.6729 97 60.531 97C82.3892 97 93.1246 73.4253 93.1246 54.5312C93.1246 49.7618 93.0942 45.7489 92.5344 42.4111C83.7658 39.4972 72.6434 37.75 60.5307 37.75C48.418 37.75 37.2962 39.4972 28.5276 42.4111Z" fill="#FFE1B2"/>
<path d="M29.0255 58.6603C25.5356 57.7754 23.2493 59.666 23.2493 63.3791C23.2493 68.2945 27.9425 80.3371 32.8762 72.8165C37.8103 65.2959 29.0255 58.6603 29.0255 58.6603Z" fill="#FFE1B2"/>
<path d="M91.444 58.6603C95.2534 57.7754 97.7491 59.666 97.7491 63.3791C97.7491 68.2945 92.6264 80.3371 87.2409 72.8165C81.8553 65.2959 91.444 58.6603 91.444 58.6603Z" fill="#FFE1B2"/>
<path d="M27.9375 54.5312C27.9375 56.8403 28.1002 59.2192 28.4219 61.6165L32.5939 63.9686C32.5939 63.9686 35.0677 46.1551 37.2502 40.1093C37.2467 40.1035 37.2442 40.0981 37.2403 40.092C34.1485 40.7493 31.2162 41.5173 28.5276 42.4108C27.9679 45.7492 27.9375 49.7621 27.9375 54.5312Z" fill="#29394A"/>
<path d="M93.1249 54.5312C93.1249 56.8403 92.9622 59.2192 92.6406 61.6165L88.4686 63.9686C88.4686 63.9686 85.9948 46.1551 83.8122 40.1093C83.8157 40.1035 83.8182 40.0981 83.8221 40.092C86.914 40.7493 89.8463 41.5173 92.5348 42.4108C93.0945 45.7492 93.1249 49.7621 93.1249 54.5312Z" fill="#29394A"/>
<path d="M55.3471 59.5742V61.3437C55.3471 66.5477 51.1695 70.781 46.0347 70.781H43.7067C41.1392 70.781 39.0504 68.6642 39.0504 66.0622V59.5739H55.3471V59.5742ZM55.3471 57.215H39.0504C37.7646 57.215 36.7224 58.2713 36.7224 59.5742V66.0625C36.7224 69.9718 39.8492 73.1407 43.7067 73.1407H46.0347C52.4637 73.1407 57.6755 67.8589 57.6755 61.3437V59.5742C57.6751 58.2713 56.6329 57.215 55.3471 57.215Z" fill="#29394A"/>
<path d="M82.0757 59.5742V66.0625C82.0757 68.6645 79.9869 70.7814 77.4193 70.7814H75.0913C69.9563 70.7814 65.7789 66.5477 65.7789 61.344V59.5746H82.0757V59.5742ZM82.0757 57.215H65.7789C64.4932 57.215 63.4509 58.2713 63.4509 59.5742V61.3437C63.4509 67.8589 68.6628 73.1407 75.0917 73.1407H77.4197C81.2772 73.1407 84.4041 69.9718 84.4041 66.0625V59.5742C84.4041 58.2713 83.3618 57.215 82.0757 57.215Z" fill="#29394A"/>
<path d="M30.2655 57.215H39.0504V62.8277L30.2655 60.1142V57.215Z" fill="#29394A"/>
<path d="M90.7965 57.215H82.076V62.8277L90.7965 60.1142V57.215Z" fill="#29394A"/>
<path d="M65.8809 62.8277H63.5528C63.5528 61.8069 62.1557 60.9105 60.5632 60.9105C58.9708 60.9105 57.5736 61.8069 57.5736 62.8277H55.2456C55.2456 60.429 57.5818 58.5513 60.5636 58.5513C63.5454 58.5513 65.8809 60.429 65.8809 62.8277Z" fill="#29394A"/>
</svg>
