<?xml version="1.0" encoding="iso-8859-1"?>
<!-- Generator: Adobe Illustrator 19.0.0, SVG Export Plug-In . SVG Version: 6.00 Build 0)  -->
<svg version="1.1" id="Layer_1" xmlns="http://www.w3.org/2000/svg" xmlns:xlink="http://www.w3.org/1999/xlink" x="0px" y="0px"
	 viewBox="0 0 473.935 473.935" style="enable-background:new 0 0 473.935 473.935;" xml:space="preserve">
<circle style="fill:#344E5D;" cx="236.967" cy="236.967" r="236.967"/>
<g>
	<path style="fill:#EDC92C;" d="M312.941,253.689v-15.132h-10.114v15.132c0,36.209-29.972,65.567-66.188,65.567h-0.03
		c-36.213,0-65.567-29.362-65.567-65.567v-15.132h-10.069v15.132c0,38.118,28.262,69.335,64.927,74.596v28.045h-40.288
		c-8.696,0-15.727,7.046-15.727,15.734c0,8.688,7.031,15.73,15.727,15.73h102.671c8.688,0,15.727-7.042,15.727-15.73
		c0-8.688-7.038-15.734-15.727-15.734h-42.196v-27.917C283.358,323.71,312.941,292.249,312.941,253.689z"/>
	<path style="fill:#EDC92C;" d="M236.623,86.114c-30.656,0-55.498,24.857-55.498,55.494v86.851h111.632v-86.851
		C292.757,110.97,267.28,86.114,236.623,86.114z M257.203,106.529c2.791,0,5.078,2.26,5.078,5.063c0,2.791-2.286,5.066-5.078,5.066
		c-2.784,0-5.066-2.275-5.066-5.066C252.137,108.792,254.415,106.529,257.203,106.529z M236.945,106.529
		c2.799,0,5.059,2.26,5.059,5.063c0,2.791-2.26,5.066-5.059,5.066c-2.821,0-5.059-2.275-5.059-5.066
		C231.886,108.792,234.124,106.529,236.945,106.529z M216.687,106.529c2.791,0,5.066,2.26,5.066,5.063
		c0,2.791-2.271,5.066-5.066,5.066s-5.07-2.275-5.07-5.066C211.613,108.792,213.892,106.529,216.687,106.529z M196.418,217.974
		c-2.806,0-5.07-2.26-5.07-5.066c0-2.788,2.264-5.066,5.07-5.066c2.806,0,5.066,2.279,5.066,5.066
		C201.484,215.714,199.224,217.974,196.418,217.974z M196.418,197.705c-2.806,0-5.07-2.26-5.07-5.059
		c0-2.803,2.264-5.063,5.07-5.063c2.806,0,5.066,2.26,5.066,5.063C201.484,195.445,199.224,197.705,196.418,197.705z
		 M196.418,177.443c-2.806,0-5.07-2.268-5.07-5.059c0-2.81,2.264-5.066,5.07-5.066c2.806,0,5.066,2.26,5.066,5.066
		C201.484,175.176,199.224,177.443,196.418,177.443z M196.418,157.185c-2.806,0-5.07-2.26-5.07-5.07c0-2.795,2.264-5.066,5.07-5.066
		c2.806,0,5.066,2.271,5.066,5.066C201.484,154.925,199.224,157.185,196.418,157.185z M206.554,136.916
		c-2.814,0-5.07-2.26-5.07-5.066c0-2.791,2.26-5.063,5.07-5.063c2.784,0,5.059,2.268,5.059,5.063
		C211.613,134.659,209.342,136.916,206.554,136.916z M216.687,217.974c-2.791,0-5.07-2.26-5.07-5.066
		c0-2.788,2.279-5.066,5.07-5.066s5.066,2.279,5.066,5.066C221.75,215.714,219.478,217.974,216.687,217.974z M216.687,197.705
		c-2.791,0-5.07-2.26-5.07-5.059c0-2.803,2.279-5.063,5.07-5.063s5.066,2.26,5.066,5.063
		C221.75,195.445,219.478,197.705,216.687,197.705z M216.687,177.443c-2.791,0-5.07-2.268-5.07-5.059c0-2.81,2.279-5.066,5.07-5.066
		s5.066,2.26,5.066,5.066C221.75,175.176,219.478,177.443,216.687,177.443z M216.687,157.185c-2.791,0-5.07-2.26-5.07-5.07
		c0-2.795,2.279-5.066,5.07-5.066s5.066,2.271,5.066,5.066C221.75,154.925,219.478,157.185,216.687,157.185z M226.808,136.916
		c-2.791,0-5.059-2.26-5.059-5.066c0-2.791,2.264-5.063,5.059-5.063c2.799,0,5.078,2.268,5.078,5.063
		C231.886,134.659,229.607,136.916,226.808,136.916z M236.945,217.974c-2.821,0-5.059-2.26-5.059-5.066
		c0-2.788,2.238-5.066,5.059-5.066c2.799,0,5.059,2.279,5.059,5.066C242,215.714,239.744,217.974,236.945,217.974z M236.945,197.705
		c-2.821,0-5.059-2.26-5.059-5.059c0-2.803,2.238-5.063,5.059-5.063c2.799,0,5.059,2.26,5.059,5.063
		C242,195.445,239.744,197.705,236.945,197.705z M236.945,177.443c-2.821,0-5.059-2.268-5.059-5.059c0-2.81,2.238-5.066,5.059-5.066
		c2.799,0,5.059,2.26,5.059,5.066C242,175.176,239.744,177.443,236.945,177.443z M236.945,157.185c-2.821,0-5.059-2.26-5.059-5.07
		c0-2.795,2.238-5.066,5.059-5.066c2.799,0,5.059,2.271,5.059,5.066C242,154.925,239.744,157.185,236.945,157.185z M247.081,136.916
		c-2.799,0-5.078-2.26-5.078-5.066c0-2.791,2.279-5.063,5.078-5.063s5.059,2.268,5.059,5.063
		C252.137,134.659,249.88,136.916,247.081,136.916z M257.203,217.974c-2.784,0-5.066-2.26-5.066-5.066
		c0-2.788,2.279-5.066,5.066-5.066c2.791,0,5.078,2.279,5.078,5.066C262.281,215.714,259.994,217.974,257.203,217.974z
		 M257.203,197.705c-2.784,0-5.066-2.26-5.066-5.059c0-2.803,2.279-5.063,5.066-5.063c2.791,0,5.078,2.26,5.078,5.063
		C262.281,195.445,259.994,197.705,257.203,197.705z M257.203,177.443c-2.784,0-5.066-2.268-5.066-5.059
		c0-2.81,2.279-5.066,5.066-5.066c2.791,0,5.078,2.26,5.078,5.066C262.281,175.176,259.994,177.443,257.203,177.443z
		 M257.203,157.185c-2.784,0-5.066-2.26-5.066-5.07c0-2.795,2.279-5.066,5.066-5.066c2.791,0,5.078,2.271,5.078,5.066
		C262.281,154.925,259.994,157.185,257.203,157.185z M267.34,136.916c-2.799,0-5.059-2.26-5.059-5.066
		c0-2.791,2.26-5.063,5.059-5.063s5.07,2.268,5.07,5.063C272.41,134.659,270.138,136.916,267.34,136.916z M277.476,217.974
		c-2.791,0-5.066-2.26-5.066-5.066c0-2.788,2.271-5.066,5.066-5.066c2.799,0,5.066,2.279,5.066,5.066
		C282.539,215.714,280.275,217.974,277.476,217.974z M277.476,197.705c-2.791,0-5.066-2.26-5.066-5.059
		c0-2.803,2.271-5.063,5.066-5.063c2.799,0,5.066,2.26,5.066,5.063C282.539,195.445,280.275,197.705,277.476,197.705z
		 M277.476,177.443c-2.791,0-5.066-2.268-5.066-5.059c0-2.81,2.271-5.066,5.066-5.066c2.799,0,5.066,2.26,5.066,5.066
		C282.539,175.176,280.275,177.443,277.476,177.443z M277.476,157.185c-2.791,0-5.066-2.26-5.066-5.07
		c0-2.795,2.271-5.066,5.066-5.066c2.799,0,5.066,2.271,5.066,5.066C282.539,154.925,280.275,157.185,277.476,157.185z"/>
	<path style="fill:#EDC92C;" d="M236.623,308.544c30.656,0,56.134-24.857,56.134-55.494v-14.492H181.125v14.492
		C181.125,283.691,205.963,308.544,236.623,308.544z"/>
</g>
<g>
</g>
<g>
</g>
<g>
</g>
<g>
</g>
<g>
</g>
<g>
</g>
<g>
</g>
<g>
</g>
<g>
</g>
<g>
</g>
<g>
</g>
<g>
</g>
<g>
</g>
<g>
</g>
<g>
</g>
</svg>
