<?xml version="1.0" encoding="iso-8859-1"?>
<!-- Generator: Adobe Illustrator 19.0.0, SVG Export Plug-In . SVG Version: 6.00 Build 0)  -->
<svg version="1.1" id="Layer_1" xmlns="http://www.w3.org/2000/svg" xmlns:xlink="http://www.w3.org/1999/xlink" x="0px" y="0px"
	 viewBox="0 0 512 512" style="enable-background:new 0 0 512 512;" xml:space="preserve">
<polygon style="fill:#ACAAB1;" points="248.486,295.748 388.415,295.748 388.415,184.838 360.603,184.838 300.495,184.838 
	248.486,184.838 248.486,234.026 "/>
<polygon style="opacity:0.23;fill:#5D5D5D;enable-background:new    ;" points="248.486,295.748 388.415,295.748 388.415,253.65 
	360.603,253.65 300.495,253.65 248.486,253.65 248.486,272.321 "/>
<path style="fill:#57545C;" d="M248.486,234.585v-45.39c0-29.615-24.007-53.622-53.622-53.622h-2.475
	c-29.615,0-53.622,24.007-53.622,53.622v139.223c0,2.923,0.234,5.791,0.684,8.587l27.49,39.868
	c8.018,4.775,17.387,7.518,27.397,7.518h2.475c29.615,0,53.622-24.007,53.622-53.622v-36.439L248.486,234.585z"/>
<g>
	<path style="fill:#CD2A00;" d="M256.082,0c-45.99-0.015-88.38,13.517-126.461,33.318c-16.905,8.791-56.189,43.224-56.189,43.224
		C28.035,122.721,0.023,186.046,0,255.918C-0.045,397.303,114.533,511.955,255.918,512C397.303,512.045,511.955,397.467,512,256.082
		C512.045,114.698,397.467,0.046,256.082,0z M255.933,466.335c-116.164-0.038-210.305-94.238-210.268-210.402
		c0.038-116.164,94.238-210.304,210.402-210.268s210.305,94.238,210.268,210.402C466.297,372.232,372.097,466.373,255.933,466.335z"
		/>
	<polygon style="fill:#CD2A00;" points="429.537,115.2 368.825,174.251 154.183,383.018 110.83,425.185 82.463,396.8 
		133.814,346.853 308.864,176.595 325.276,160.632 384.712,102.823 401.17,86.815 	"/>
</g>
<circle style="fill:#ACAAB1;" cx="193.63" cy="207.126" r="32.402"/>
<circle style="fill:#FFFFFF;" cx="193.63" cy="207.126" r="11.351"/>
<path style="fill:#ACAAB1;" d="M186.15,289.525c-3.114-2.296-5.134-5.991-5.134-10.156c0-6.965,5.646-12.611,12.611-12.611
	c4.639,0,8.693,2.505,10.882,6.235L186.15,289.525z"/>
<g>
</g>
<g>
</g>
<g>
</g>
<g>
</g>
<g>
</g>
<g>
</g>
<g>
</g>
<g>
</g>
<g>
</g>
<g>
</g>
<g>
</g>
<g>
</g>
<g>
</g>
<g>
</g>
<g>
</g>
</svg>
