<?xml version="1.0" encoding="iso-8859-1"?>
<!-- Generator: Adobe Illustrator 19.0.0, SVG Export Plug-In . SVG Version: 6.00 Build 0)  -->
<svg version="1.1" id="Layer_1" xmlns="http://www.w3.org/2000/svg" xmlns:xlink="http://www.w3.org/1999/xlink" x="0px" y="0px"
	 viewBox="0 0 504.123 504.123" style="enable-background:new 0 0 504.123 504.123;" xml:space="preserve">
<path style="fill:#3D5763;" d="M272.041,459.815c0,11.028-8.94,19.976-19.984,19.976l0,0c-11.043,0-19.992-8.948-19.992-19.976
	v-25.34c0-11.036,8.948-19.992,19.992-19.992l0,0c11.043,0,19.984,8.956,19.984,19.992V459.815z"/>
<path style="fill:#59727F;" d="M362.823,433.822H141.277c-27.869,0-50.538-22.678-50.538-50.554V199.916
	c0-11.036,8.94-19.984,19.992-19.984c11.036,0,19.992,8.948,19.992,19.984v183.351c0,5.829,4.742,10.579,10.555,10.579h221.554
	c5.829,0,10.571-4.75,10.571-10.579V199.916c0-11.036,8.956-19.984,20-19.984c11.036,0,19.984,8.948,19.984,19.984v183.351
	C413.377,411.144,390.707,433.822,362.823,433.822z"/>
<path style="fill:#3D5763;" d="M393.393,179.933c-11.043,0-20,8.948-20,19.984v146.708v36.643c0,5.829-4.742,10.579-10.571,10.579
	H141.277c-5.813,0-10.555-4.75-10.555-10.579v-36.643V199.916c0-11.036-8.956-19.984-19.992-19.984
	c-11.051,0-19.992,8.948-19.992,19.984v146.708c0,27.876,22.67,50.554,50.538,50.554h221.554c27.876,0,50.554-22.678,50.554-50.554
	V199.916C413.377,188.881,404.437,179.933,393.393,179.933z"/>
<path style="fill:#85A2AF;" d="M396.993,217.813c0,4.553-5.372,8.247-11.989,8.247H119.103c-6.617,0-11.981-3.694-11.981-8.247l0,0
	c0-4.553,5.372-8.247,11.981-8.247h265.901C391.629,209.566,396.993,213.26,396.993,217.813L396.993,217.813z"/>
<path style="fill:#273D4F;" d="M339.287,340.606c0,18.353-14.895,33.241-33.249,33.241H198.061
	c-18.353,0-33.233-14.887-33.233-33.241V33.241C164.829,14.887,179.708,0,198.061,0h107.985c18.353,0,33.249,14.887,33.249,33.241
	v307.365H339.287z"/>
<path d="M306.046,35.304H198.061c-18.353,0-33.233,14.88-33.233,33.225v272.077c0,18.353,14.88,33.241,33.233,33.241h107.985
	c18.353,0,33.249-14.887,33.249-33.241V68.529C339.287,50.184,324.399,35.304,306.046,35.304z"/>
<path style="fill:#5F7787;" d="M319.563,186.919c0,4.017-3.261,7.27-7.286,7.27H191.831c-4.017,0-7.278-3.253-7.278-7.27l0,0
	c0-4.017,3.261-7.27,7.278-7.27h120.454C316.302,179.657,319.563,182.91,319.563,186.919L319.563,186.919z"/>
<g>
	<circle style="fill:#3C586B;" cx="215.194" cy="49.325" r="6.751"/>
	<circle style="fill:#3C586B;" cx="252.058" cy="49.325" r="6.743"/>
	<circle style="fill:#3C586B;" cx="288.922" cy="49.325" r="6.751"/>
	<circle style="fill:#3C586B;" cx="215.194" cy="84.118" r="6.751"/>
	<circle style="fill:#3C586B;" cx="252.058" cy="84.118" r="6.743"/>
	<circle style="fill:#3C586B;" cx="288.922" cy="84.118" r="6.751"/>
	<circle style="fill:#3C586B;" cx="215.194" cy="118.902" r="6.751"/>
	<circle style="fill:#3C586B;" cx="252.058" cy="118.902" r="6.743"/>
	<circle style="fill:#3C586B;" cx="288.922" cy="118.902" r="6.751"/>
	<circle style="fill:#3C586B;" cx="215.194" cy="153.679" r="6.751"/>
	<circle style="fill:#3C586B;" cx="252.058" cy="153.679" r="6.743"/>
	<circle style="fill:#3C586B;" cx="288.922" cy="153.679" r="6.751"/>
	<circle style="fill:#3C586B;" cx="215.194" cy="220.16" r="6.751"/>
	<circle style="fill:#3C586B;" cx="252.058" cy="220.16" r="6.743"/>
	<circle style="fill:#3C586B;" cx="288.922" cy="220.16" r="6.751"/>
	<circle style="fill:#3C586B;" cx="215.194" cy="254.945" r="6.751"/>
	<circle style="fill:#3C586B;" cx="252.058" cy="254.945" r="6.743"/>
	<circle style="fill:#3C586B;" cx="288.922" cy="254.945" r="6.751"/>
	<circle style="fill:#3C586B;" cx="215.194" cy="289.713" r="6.751"/>
	<circle style="fill:#3C586B;" cx="252.058" cy="289.713" r="6.743"/>
	<circle style="fill:#3C586B;" cx="288.922" cy="289.713" r="6.751"/>
	<circle style="fill:#3C586B;" cx="215.194" cy="324.521" r="6.751"/>
	<circle style="fill:#3C586B;" cx="252.058" cy="324.521" r="6.743"/>
	<circle style="fill:#3C586B;" cx="288.922" cy="324.521" r="6.751"/>
</g>
<path style="fill:#0E253A;" d="M394.567,504.123c-31.72-44.536-83.661-53.563-142.509-53.563s-110.781,9.027-142.509,53.563H394.567
	z"/>
<g>
</g>
<g>
</g>
<g>
</g>
<g>
</g>
<g>
</g>
<g>
</g>
<g>
</g>
<g>
</g>
<g>
</g>
<g>
</g>
<g>
</g>
<g>
</g>
<g>
</g>
<g>
</g>
<g>
</g>
</svg>
