<svg width="18" height="18" viewBox="0 0 18 18" fill="none" xmlns="http://www.w3.org/2000/svg">
<path d="M17.9983 0.34142C17.9946 0.311418 17.9908 0.28138 17.9796 0.251378C17.9758 0.240123 17.9721 0.225104 17.9683 0.213849C17.9496 0.172592 17.9233 0.135063 17.8933 0.101297C17.8595 0.0712947 17.822 0.0450208 17.7808 0.0262739C17.7695 0.0225104 17.7545 0.0150187 17.7432 0.0150187C17.7132 0.00752692 17.6832 0 17.6532 0C17.6382 0 17.6269 0 17.6119 0C17.5782 0 17.5406 0.00749175 17.5069 0.018747C17.4994 0.0225104 17.4918 0.0225104 17.4844 0.0262387H17.4806L0.226357 7.52224C0.0350183 7.60479 -0.0512598 7.82614 0.0312549 8.01747C0.0650205 8.09626 0.12506 8.16003 0.200083 8.19756L6.473 11.5178L9.79705 17.7908C9.86082 17.9146 9.98839 17.9896 10.1272 17.9934H10.1422C10.2848 17.9896 10.4124 17.8996 10.4724 17.7683L17.9721 0.51774V0.513976C17.9758 0.506485 17.9758 0.498958 17.9795 0.491466C17.9908 0.4577 17.9983 0.423935 17.9983 0.386405C17.9983 0.371422 18.0021 0.356403 17.9983 0.34142ZM1.24305 7.89367L15.9761 1.48945L6.68681 10.775L1.24305 7.89367ZM10.1009 16.7515L7.21957 11.3078L16.5051 2.01845L10.1009 16.7515Z" fill="black"/>
</svg>
