<?xml version="1.0" encoding="iso-8859-1"?>
<!-- Generator: Adobe Illustrator 19.0.0, SVG Export Plug-In . SVG Version: 6.00 Build 0)  -->
<svg version="1.1" id="Layer_1" xmlns="http://www.w3.org/2000/svg" xmlns:xlink="http://www.w3.org/1999/xlink" x="0px" y="0px"
	 viewBox="0 0 511.999 511.999" style="enable-background:new 0 0 511.999 511.999;" xml:space="preserve">
<path style="fill:#FF905E;" d="M470.856,483.152H41.143c-31.629,0-51.393-34.215-35.574-61.616L220.426,49.395
	c15.814-27.391,55.327-27.401,71.147,0L506.43,421.536C522.243,448.927,502.496,483.152,470.856,483.152z"/>
<path style="fill:#E87E04;" d="M506.43,421.536L291.573,49.395c-7.304-12.65-20.484-20.539-35.574-20.539v454.296h214.857
	C502.484,483.152,522.25,448.938,506.43,421.536z"/>
<g>
	<path style="fill:#FFE49C;" d="M256,330.523c-10.394,0-18.821-8.427-18.821-18.821v-107.89c0-10.394,8.427-18.821,18.821-18.821
		s18.821,8.427,18.821,18.821v107.89C274.821,322.097,266.394,330.523,256,330.523z"/>
	<path style="fill:#FFE49C;" d="M256,403.855c-10.394,0-18.821-8.427-18.821-18.821v-11.239c0-10.394,8.427-18.821,18.821-18.821
		s18.821,8.427,18.821,18.821v11.239C274.821,395.428,266.394,403.855,256,403.855z"/>
</g>
<g>
	<path style="fill:#FFC72D;" d="M256,184.991L256,184.991v145.533l0,0c10.394,0,18.821-8.427,18.821-18.821v-107.89
		C274.821,193.418,266.394,184.991,256,184.991z"/>
	<path style="fill:#FFC72D;" d="M256,354.974L256,354.974v48.881l0,0c10.394,0,18.821-8.427,18.821-18.821v-11.239
		C274.821,363.401,266.394,354.974,256,354.974z"/>
</g>
<g>
</g>
<g>
</g>
<g>
</g>
<g>
</g>
<g>
</g>
<g>
</g>
<g>
</g>
<g>
</g>
<g>
</g>
<g>
</g>
<g>
</g>
<g>
</g>
<g>
</g>
<g>
</g>
<g>
</g>
</svg>
