<svg width="146" height="154" viewBox="0 0 146 154" fill="none" xmlns="http://www.w3.org/2000/svg">
<path d="M98.1725 79.6553H73H47.8275C45.3102 79.6553 40.2758 82.3247 40.2758 87.6209C40.2758 103.936 73 127.448 73 143.379C73 127.448 105.724 103.936 105.724 87.6209C105.724 82.3247 100.69 79.6553 98.1725 79.6553Z" fill="#464655"/>
<path d="M42.6976 97.9689C47.5678 110.583 59.2917 119.483 73 119.483C86.7084 119.483 98.4323 110.583 103.303 97.9689L97.0803 96.5101C94.7769 95.9702 93.1381 93.8152 93.1381 91.3262V79.655H52.862V91.3262C52.862 93.8155 51.2232 95.9699 48.9197 96.5101L42.6976 97.9689Z" fill="#E6B47D"/>
<path d="M48.9197 96.5102L42.9762 97.9034L42.8048 98.2198C42.8091 98.2303 42.8139 98.2409 42.8182 98.2514C73.0114 111.5 93.138 82.3118 93.138 82.3118V79.6565H52.862V91.3262C52.862 93.8155 51.2235 95.9703 48.9197 96.5102Z" fill="#D2A073"/>
<path d="M37.7567 50.4482V57.0874C37.7567 60.2985 39.9188 62.977 42.7911 63.5918V68.475C42.7911 73.8015 45.1209 78.7758 48.9993 81.7304L60.1914 90.2563C62.4815 92.0012 65.1725 92.9321 67.9251 92.9321H78.0715C80.8239 92.9321 83.5149 92.0012 85.8047 90.2563L96.9968 81.7304C100.875 78.7758 103.205 73.8018 103.205 68.475V63.5918C106.077 62.9767 108.239 60.2982 108.239 57.0874V50.4482H37.7567Z" fill="#F0C891"/>
<path d="M103.205 58.4138H100.689C99.104 58.4138 97.6115 59.2007 96.6608 60.5382L92.1308 66.91C91.1798 68.2473 89.6879 69.0344 88.103 69.0344H57.8964C56.3117 69.0344 54.8195 68.2476 53.8688 66.9103L49.3377 60.5379C48.3867 59.2007 46.8947 58.4138 45.3101 58.4138H42.7928L42.7908 68.4753C42.7908 73.8018 45.1205 78.7761 48.9989 81.7307L60.191 90.2566C62.4811 92.0012 65.1721 92.9324 67.9247 92.9324H78.0766C80.8286 92.9324 83.5191 92.0015 85.8089 90.2566L96.9993 81.7307C100.877 78.7761 103.207 73.8018 103.207 68.4753L103.205 58.4138Z" fill="#E6B47D"/>
<path d="M60.4118 58.415C59.0273 58.415 57.8944 57.2203 57.8944 55.7597V53.1045C57.8944 51.6442 59.0271 50.4492 60.4118 50.4492C61.7962 50.4492 62.9291 51.6439 62.9291 53.1045V55.7597C62.9291 57.2203 61.7965 58.415 60.4118 58.415Z" fill="#5A4137"/>
<path d="M85.5843 58.415C84.1998 58.415 83.0669 57.2203 83.0669 55.7597V53.1045C83.0669 51.6442 84.1995 50.4492 85.5843 50.4492C86.9687 50.4492 88.1016 51.6439 88.1016 53.1045V55.7597C88.1016 57.2203 86.9687 58.415 85.5843 58.415Z" fill="#5A4137"/>
<path d="M40.2758 42.4827H105.724C107.114 42.4827 108.241 43.6717 108.241 45.138V50.4483C108.241 51.9146 107.114 53.1036 105.724 53.1036H40.2758C38.8856 53.1036 37.7584 51.9146 37.7584 50.4483V45.138C37.7587 43.6717 38.8856 42.4827 40.2758 42.4827Z" fill="#464655"/>
<path d="M105.724 42.4826H40.2758V34.5171C40.2758 15.4538 54.9268 0 73 0C91.0732 0 105.724 15.4538 105.724 34.5174V42.4826Z" fill="#5B5D6E"/>
<path d="M125.101 102.687L107.712 98.1016L105.724 87.6206C105.724 90.5782 104.622 93.7779 102.861 97.1205C94.9083 112.217 73 130.336 73 143.379C73 130.336 51.0918 112.217 43.1393 97.1208C41.3782 93.7782 40.2761 90.5785 40.2761 87.6209L38.2888 98.1019L20.8991 102.687C13.0551 104.756 7.55212 112.19 7.55212 120.719V148.69C7.55212 151.622 9.80628 154 12.5866 154H133.414C136.194 154 138.449 151.622 138.449 148.69V120.719C138.448 112.19 132.945 104.756 125.101 102.687Z" fill="#707487"/>
<path d="M25.7833 122.782L12.098 108.347C9.273 111.671 7.55151 116.008 7.55151 120.719V148.69C7.55151 151.622 9.80567 154 12.5859 154H30.2066V134.047C30.2069 129.822 28.6157 125.77 25.7833 122.782Z" fill="#5B5D6E"/>
<path d="M120.217 122.782L133.902 108.347C136.727 111.671 138.448 116.008 138.448 120.719V148.69C138.448 151.622 136.194 154 133.414 154H115.793V134.047C115.793 129.822 117.384 125.77 120.217 122.782Z" fill="#5B5D6E"/>
</svg>
