<svg width="117" height="133" viewBox="0 0 117 133" fill="none" xmlns="http://www.w3.org/2000/svg">
<path d="M66.3963 38.0486C61.1129 39.2478 55.5814 39.2478 50.298 38.0486C22.7784 31.8061 -0.263806 34.1998 0.00228176 81.7999C0.137884 106.183 25.0325 137.799 51.1961 132.39C55.8884 131.421 60.8034 131.421 65.4957 132.39C91.6593 137.799 116.554 106.183 116.689 81.7999C116.956 34.2022 93.916 31.8061 66.3963 38.0486Z" fill="#D13834"/>
<path d="M12.7951 69.6389C11.3802 69.6389 10.2366 68.5875 10.2366 67.2921C10.2366 54.3518 20.5654 43.8241 33.2634 43.8241C34.6783 43.8241 35.8219 44.8755 35.8219 46.1709C35.8219 47.4663 34.6783 48.5177 33.2634 48.5177C23.39 48.5177 15.3536 56.9403 15.3536 67.2921C15.3536 68.5875 14.2074 69.6389 12.7951 69.6389Z" fill="#F75B57"/>
<path d="M58.1631 46.9336C56.7891 46.9336 55.6531 45.9315 55.6097 44.6619C55.2642 34.7302 51.1041 22.2617 40.458 17.0542C39.212 16.444 38.7387 15.0242 39.4039 13.879C40.0717 12.7361 41.6144 12.3019 42.8681 12.9121C55.4408 19.0607 60.3353 33.2658 60.7242 44.5117C60.7702 45.8071 59.6624 46.8913 58.2475 46.9312C58.2168 46.9336 58.1912 46.9336 58.1631 46.9336Z" fill="#4C312C"/>
<path d="M57.9352 55.3656C53.6369 55.3656 49.5918 53.8284 46.5497 51.0357C45.5493 50.1205 45.5493 48.635 46.5497 47.7174C47.5501 46.7998 49.1671 46.7998 50.1675 47.7174C52.245 49.623 55.0057 50.672 57.9352 50.672C60.8647 50.672 63.6254 49.623 65.7004 47.7174C66.7008 46.7998 68.3178 46.7998 69.3182 47.7174C70.3185 48.6326 70.3185 50.1181 69.3182 51.0357C66.2761 53.8284 62.2336 55.3656 57.9352 55.3656Z" fill="#994530"/>
<path d="M55.7069 30.6022L57.2651 21.0132C58.9102 10.8868 67.5785 2.93584 78.6186 1.42685L89.0702 0L87.5121 9.58901C85.867 19.7154 77.1986 27.6664 66.1585 29.1754L55.7069 30.6022Z" fill="#659C35"/>
</svg>
